<mxfile host="65bd71144e">
    <diagram id="o2aIPiXRAxg4BM5_zzt2" name="Page-1">
        <mxGraphModel dx="832" dy="475" grid="1" gridSize="10" guides="1" tooltips="1" connect="1" arrows="1" fold="1" page="1" pageScale="1" pageWidth="850" pageHeight="1100" math="0" shadow="0">
            <root>
                <mxCell id="0"/>
                <mxCell id="1" parent="0"/>
                <mxCell id="2" value="&lt;b&gt;&lt;font style=&quot;&quot;&gt;&lt;font style=&quot;&quot;&gt;&lt;font style=&quot;font-size: 24px;&quot;&gt;Aims and Objectives:&lt;/font&gt;&lt;br&gt;&lt;/font&gt;&lt;/font&gt;&amp;gt; Machine Learning App to select Best&lt;/b&gt;&lt;br&gt;&lt;b&gt;&amp;nbsp;Model based on Regression or Classification&lt;/b&gt;&lt;br&gt;&lt;b&gt;&amp;gt; Fine tune the Model and Select the Best Model&lt;/b&gt;&lt;br&gt;&lt;b&gt;&amp;gt; print the Evaluation with respect to Evaluation Metrics&lt;/b&gt;" style="rounded=1;whiteSpace=wrap;html=1;fillColor=#a20025;fontColor=#ffffff;strokeColor=#6F0000;" vertex="1" parent="1">
                    <mxGeometry x="10" y="30" width="330" height="120" as="geometry"/>
                </mxCell>
                <mxCell id="11" value="" style="shape=singleArrow;direction=south;whiteSpace=wrap;html=1;fontSize=18;fillColor=#1ba1e2;fontColor=#ffffff;strokeColor=#006EAF;arrowWidth=0.23333333333333334;arrowSize=0.33636363636363636;" vertex="1" parent="1">
                    <mxGeometry x="150" y="150" width="50" height="100" as="geometry"/>
                </mxCell>
                <mxCell id="13" value="&lt;font style=&quot;font-size: 24px;&quot;&gt;Load the Data&lt;/font&gt;" style="shape=datastore;whiteSpace=wrap;html=1;fontSize=18;" vertex="1" parent="1">
                    <mxGeometry x="105" y="250" width="140" height="120" as="geometry"/>
                </mxCell>
                <mxCell id="14" value="" style="shape=singleArrow;direction=south;whiteSpace=wrap;html=1;fontSize=24;arrowWidth=0.36;arrowSize=0.3333333333333333;fillColor=#1ba1e2;fontColor=#ffffff;strokeColor=#006EAF;" vertex="1" parent="1">
                    <mxGeometry x="155" y="370" width="45" height="90" as="geometry"/>
                </mxCell>
                <mxCell id="15" value="&lt;b&gt;Example Data&lt;/b&gt;" style="shape=delay;whiteSpace=wrap;html=1;fontSize=24;fillColor=#d80073;fontColor=#ffffff;strokeColor=#A50040;" vertex="1" parent="1">
                    <mxGeometry x="77.5" y="460" width="200" height="40" as="geometry"/>
                </mxCell>
                <mxCell id="16" value="" style="shape=singleArrow;whiteSpace=wrap;html=1;arrowWidth=0.4;arrowSize=0.4;fontSize=24;fillColor=#1ba1e2;strokeColor=#006EAF;fontColor=#ffffff;rotation=90;" vertex="1" parent="1">
                    <mxGeometry x="140" y="520" width="75" height="30" as="geometry"/>
                </mxCell>
                <mxCell id="19" value="&lt;font color=&quot;#ffffff&quot;&gt;&lt;font style=&quot;font-size: 18px;&quot;&gt;Check the Column Names and Data Types&lt;/font&gt;&lt;br&gt;&lt;/font&gt;" style="shape=loopLimit;whiteSpace=wrap;html=1;fontSize=24;align=center;fillColor=#60a917;fontColor=#ffffff;strokeColor=#2D7600;" vertex="1" parent="1">
                    <mxGeometry x="42.5" y="570" width="270" height="70" as="geometry"/>
                </mxCell>
                <mxCell id="21" value="" style="shape=corner;whiteSpace=wrap;html=1;labelBackgroundColor=#00CC00;fontSize=18;fontColor=#ffffff;rotation=-90;fillColor=#60a917;strokeColor=#2D7600;" vertex="1" parent="1">
                    <mxGeometry x="155" y="640" width="80" height="80" as="geometry"/>
                </mxCell>
                <mxCell id="34" value="&lt;font style=&quot;font-size: 14px;&quot; color=&quot;#ffffff&quot;&gt;&lt;b&gt;Asking for the Features and Classification We have to find that the problem is Regression or Classification&lt;/b&gt;&lt;/font&gt;" style="rounded=1;whiteSpace=wrap;html=1;labelBackgroundColor=#18141D;fontSize=12;" vertex="1" parent="1">
                    <mxGeometry x="235" y="680" width="275" height="70" as="geometry"/>
                </mxCell>
                <mxCell id="36" value="&lt;b&gt;Preprocessing &lt;br&gt;Null Values Imputation&lt;br&gt;Feature Encoding&lt;br&gt;Inverse Transform&lt;br&gt;Feature Selection&lt;/b&gt;" style="ellipse;shape=cloud;whiteSpace=wrap;html=1;labelBackgroundColor=none;strokeColor=#A50040;fontSize=14;fontColor=#ffffff;fillColor=#d80073;" vertex="1" parent="1">
                    <mxGeometry x="450" y="730" width="240" height="197.5" as="geometry"/>
                </mxCell>
                <mxCell id="46" value="&#10;&lt;span style=&quot;color: rgb(255, 255, 255); font-family: Helvetica; font-size: 14px; font-style: normal; font-variant-ligatures: normal; font-variant-caps: normal; font-weight: 400; letter-spacing: normal; orphans: 2; text-align: center; text-indent: 0px; text-transform: none; widows: 2; word-spacing: 0px; -webkit-text-stroke-width: 0px; background-color: rgb(42, 37, 47); text-decoration-thickness: initial; text-decoration-style: initial; text-decoration-color: initial; float: none; display: inline !important;&quot;&gt;Select teh Best Model based on the Regression and the Classification This will based on Selecting the target Variable&lt;/span&gt;&#10;&#10;" style="shape=document;whiteSpace=wrap;html=1;boundedLbl=1;labelBackgroundColor=none;strokeColor=#F0F0F0;fontSize=14;fontColor=#FFFFFF;fillColor=#18141D;gradientColor=none;" vertex="1" parent="1">
                    <mxGeometry x="560" y="580" width="280" height="140" as="geometry"/>
                </mxCell>
                <mxCell id="56" value="Based on the Regression and Classification Model this will based on Selecting the Target variable" style="shape=parallelogram;perimeter=parallelogramPerimeter;whiteSpace=wrap;html=1;fixedSize=1;labelBackgroundColor=none;strokeColor=#A50040;fontSize=14;fontColor=#ffffff;fillColor=#d80073;" vertex="1" parent="1">
                    <mxGeometry x="560" y="410" width="215" height="110" as="geometry"/>
                </mxCell>
                <mxCell id="57" value="" style="shape=singleArrow;whiteSpace=wrap;html=1;arrowWidth=0.4;arrowSize=0.4;fontSize=14;fillColor=#1ba1e2;strokeColor=#006EAF;fontColor=#ffffff;labelBackgroundColor=none;rotation=-90;" vertex="1" parent="1">
                    <mxGeometry x="610" y="380" width="50" height="20" as="geometry"/>
                </mxCell>
                <mxCell id="59" value="Print the Evaluation Martics and Based on the Evaluartion Metrics print the Result and Select teh Best Model" style="ellipse;whiteSpace=wrap;html=1;labelBackgroundColor=none;strokeColor=#2D7600;fontSize=14;fontColor=#ffffff;fillColor=#60a917;" vertex="1" parent="1">
                    <mxGeometry x="530" y="220" width="230" height="150" as="geometry"/>
                </mxCell>
                <mxCell id="62" value="" style="shape=flexArrow;endArrow=classic;html=1;fontSize=18;fontColor=#FFFFFF;exitX=0.709;exitY=1;exitDx=0;exitDy=0;exitPerimeter=0;fillColor=#1ba1e2;strokeColor=#006EAF;" edge="1" parent="1" source="34">
                    <mxGeometry width="50" height="50" relative="1" as="geometry">
                        <mxPoint x="410" y="760" as="sourcePoint"/>
                        <mxPoint x="470" y="800" as="targetPoint"/>
                    </mxGeometry>
                </mxCell>
                <mxCell id="64" value="" style="shape=flexArrow;endArrow=classic;html=1;fontSize=18;fontColor=#FFFFFF;fillColor=#1ba1e2;strokeColor=#006EAF;" edge="1" parent="1">
                    <mxGeometry width="50" height="50" relative="1" as="geometry">
                        <mxPoint x="590" y="770" as="sourcePoint"/>
                        <mxPoint x="640" y="720" as="targetPoint"/>
                    </mxGeometry>
                </mxCell>
                <mxCell id="66" value="" style="shape=flexArrow;endArrow=classic;html=1;fontSize=18;fontColor=#FFFFFF;fillColor=#1ba1e2;strokeColor=#006EAF;entryX=0.405;entryY=1.027;entryDx=0;entryDy=0;entryPerimeter=0;" edge="1" parent="1" target="56">
                    <mxGeometry width="50" height="50" relative="1" as="geometry">
                        <mxPoint x="650" y="575" as="sourcePoint"/>
                        <mxPoint x="690" y="525" as="targetPoint"/>
                    </mxGeometry>
                </mxCell>
                <mxCell id="67" value="" style="shape=singleArrow;whiteSpace=wrap;html=1;arrowWidth=0.1;arrowSize=0.4;fontSize=14;fillColor=#1ba1e2;strokeColor=#006EAF;fontColor=#ffffff;labelBackgroundColor=none;rotation=-90;" vertex="1" parent="1">
                    <mxGeometry x="610" y="190" width="45" height="20" as="geometry"/>
                </mxCell>
                <mxCell id="69" value="Select the Best Model based on Hyperparameter Tuning&amp;nbsp;" style="rounded=1;whiteSpace=wrap;html=1;labelBackgroundColor=none;strokeColor=#A50040;fontSize=18;fontColor=#ffffff;fillColor=#d80073;align=center;" vertex="1" parent="1">
                    <mxGeometry x="542.5" y="80" width="180" height="100" as="geometry"/>
                </mxCell>
            </root>
        </mxGraphModel>
    </diagram>
</mxfile>